<svg id="Camada_1" data-name="Camada 1" xmlns="http://www.w3.org/2000/svg" xmlns:xlink="http://www.w3.org/1999/xlink" viewBox="0 0 1080 1080"><defs><style>.cls-1{fill:url(#Gradiente_sem_nome_7);}.cls-2{fill:url(#Gradiente_sem_nome_7-2);}.cls-3{fill:#001b2d;}</style><linearGradient id="Gradiente_sem_nome_7" x1="362.17" y1="865.15" x2="141.25" y2="482.51" gradientUnits="userSpaceOnUse"><stop offset="0" stop-color="#f22f6b"/><stop offset="1" stop-color="#ff8429"/></linearGradient><linearGradient id="Gradiente_sem_nome_7-2" x1="358.71" y1="750.24" x2="119.11" y2="335.24" xlink:href="#Gradiente_sem_nome_7"/></defs><path class="cls-1" d="M460.94,544.4a14.54,14.54,0,0,0-14.51-14.54,14.36,14.36,0,0,0-3.79.51l-.12,0L363,562.48l5.46,22,69.85-29.17.09,230.18-95.84,0L252,709.59l-90.51,76-95.84,0-.1-230.18,69.88,29.12,5.43-22L66.76,532l-.13,0a18.69,18.69,0,0,0-18,4.75A18.67,18.67,0,0,0,43,550.1l.1,258.14,126.65,0,1.32-1.11,81-68,81,67.95,1.32,1.1,126.65,0Z"/><path class="cls-2" d="M216.14,398.1v21.22h-3.66a18.86,18.86,0,0,0-18.32,14.33L128.82,658.2,101,681.55a19.58,19.58,0,0,0,0,30l50.22,42.11,87.6-73.34-.12-304.82-67.09,0V356l67.09,0,0-61.62h26.36l0,61.62,67.09,0v19.51l-67.09,0,.12,304.82,87.53,73.38,1.32-1.11,49-41.15a19.58,19.58,0,0,0,0-30L375.21,658.1,309.13,431.38a15.94,15.94,0,0,0-15.5-12.09h-5.94V398.07l48,0A19.11,19.11,0,0,0,354.76,379l0-45.6-67.09,0,0-61.62-53.89,0a17.67,17.67,0,0,0-17.64,17.66v44l-49.34,0A17.78,17.78,0,0,0,149,351.18l0,46.95Zm0,48.39.09,223.3-64.88,54.49-33.08-27.74,30.63-25.72L181.45,558.7Zm139,224.25,30.65,25.7-33,27.76-64.93-54.44-.09-223.3,34.8,112.17Z"/><path class="cls-3" d="M630.83,623.2a54.21,54.21,0,0,1-11.51,15.26,65.7,65.7,0,0,1-13.82,9.73,54.62,54.62,0,0,1-13.83,5.06,59.52,59.52,0,0,1-11.88,1.44,37.21,37.21,0,0,1-19.44-5.19l-8.94-5-6.13-8.31a62.5,62.5,0,0,1-9.49-18.32l-3.31-10.16.23-10.19a71.72,71.72,0,0,1,3.1-20.41,65.62,65.62,0,0,1,8.85-18.69A46.78,46.78,0,0,1,558.94,545a36.81,36.81,0,0,1,19.47-5.15,57.31,57.31,0,0,1,10.43,1.22,41.15,41.15,0,0,1,12.44,4.77A43.46,43.46,0,0,1,613,555.94c3.55,4.26,6.15,10,7.74,17.08l1,4.4,13.65-13.3-1.1-1.73a66.69,66.69,0,0,0-11.34-13.61,61.15,61.15,0,0,0-13.54-9.34,67.74,67.74,0,0,0-14.79-5.36,66,66,0,0,0-15-1.79,22.75,22.75,0,0,0-3.74.24,60.2,60.2,0,0,0-25.71,7,67.86,67.86,0,0,0-19.31,15.39,65.43,65.43,0,0,0-11.94,20.42A61.12,61.12,0,0,0,515,597.44l-.24,11,4.06,11a63.92,63.92,0,0,0,11.95,20.32A66.89,66.89,0,0,0,550.13,655,63.55,63.55,0,0,0,576,662h.16c13.38,0,25.57-2.92,36.22-8.68s19.33-15,25.51-27.39l1.51-3-7.66-1.39Z"/><path class="cls-3" d="M709.71,581.08a85.56,85.56,0,0,1-12.29,4.48q-7.11,2.07-14.92,4.13a68.72,68.72,0,0,0-14.36,5.51,30.26,30.26,0,0,0-10.44,8.73q-3.91,5.28-3.22,13.55a27.17,27.17,0,0,0,4.25,10.45,26.78,26.78,0,0,0,7.58,7.35,35.46,35.46,0,0,0,10,4.36,42.59,42.59,0,0,0,11.25,1.49,47.56,47.56,0,0,0,14.93-2.41A35.59,35.59,0,0,0,715.57,631v3.21l-2.76,7.12H730l-3.44-7.12v-11l.23-19.52v-20A28.93,28.93,0,0,0,724,570.63,27.85,27.85,0,0,0,716,561a36.74,36.74,0,0,0-11.72-6A47.67,47.67,0,0,0,690.08,553a37.7,37.7,0,0,0-11.83,1.84A36.79,36.79,0,0,0,668,560a35.26,35.26,0,0,0-7.92,7.93,37,37,0,0,0-5.17,10.1l11.94,3.22V578q.47-10.56,7.35-16.76t17.22-6.2q10.34,0,17.34,4.24t7,14.13v1.37C715.18,577.37,713.16,579.47,709.71,581.08Zm5.86,32.26v7.35l-6.43,10.11q-14.94,8.73-21.59,8.72a20.12,20.12,0,0,1-14.81-6.08q-6.09-6.09-6.32-16.42-.23-8.73,2.64-13.89a23.24,23.24,0,0,1,7.58-8.27A39.15,39.15,0,0,1,687.09,590c3.83-1.15,7.61-2.18,11.37-3.1a81.73,81.73,0,0,0,10.33-3.22,13.89,13.89,0,0,0,7-5.51Z"/><path class="cls-3" d="M794.79,566l2.3,1.84,9.19-9-2.53-1.84a53.21,53.21,0,0,0-8.5-3.21,30.56,30.56,0,0,0-8.27-1.15,25.7,25.7,0,0,0-10.79,2.41,37,37,0,0,0-10.56,7.69c-.61.62-1.23,1.19-1.84,1.73s-1.3,1.11-2.07,1.72l.23-13.55-14.92,14,3.9,1.38-.23,66.59L747,641.59h17.91l-3.22-6.66V569a24,24,0,0,0,2.07-1.83l1.84-1.84a19.66,19.66,0,0,1,6.31-3.67,20.55,20.55,0,0,1,6.78-1.15,24.68,24.68,0,0,1,9.64,1.83A24.05,24.05,0,0,1,794.79,566Z"/><path class="cls-3" d="M841.12,552.72l-13.78,14h-5.28v2.52h8c0,.16,0,2.07-.11,5.74s-.12,7.74-.12,12.18v12.4l-.22,5.74v14.47q16.29,20.65,30.77,21.81v-2.07q-9.88-.22-14.58-7.11a28.62,28.62,0,0,1-4.71-16.54V569.25H862.7v-2.52H841.12Z"/><path class="cls-3" d="M952.26,623.22l.23-19.52v-20a28.93,28.93,0,0,0-2.87-13.09A27.74,27.74,0,0,0,941.7,561,36.79,36.79,0,0,0,930,555,47.79,47.79,0,0,0,915.75,553a37.74,37.74,0,0,0-11.83,1.84A36.79,36.79,0,0,0,893.7,560a35.47,35.47,0,0,0-7.92,7.93,37.24,37.24,0,0,0-5.17,10.1l11.94,3.22V578q.47-10.56,7.35-16.76t17.23-6.2q10.33,0,17.33,4.24t7,14.13v1.37q-.91,3.91-6.09,6.32a85.84,85.84,0,0,1-12.28,4.48q-7.12,2.07-14.93,4.13a68.42,68.42,0,0,0-14.35,5.51,30.2,30.2,0,0,0-10.45,8.73c-2.61,3.52-3.67,8-3.22,13.55a27.33,27.33,0,0,0,4.25,10.45,26.91,26.91,0,0,0,7.58,7.35,35.71,35.71,0,0,0,10,4.36,42.65,42.65,0,0,0,11.25,1.49,47.56,47.56,0,0,0,14.93-2.41A35.51,35.51,0,0,0,941.24,631v3.21l-2.76,7.12h17.23l-3.45-7.12Zm-11-9.88v7.35l-6.43,10.11q-14.92,8.73-21.59,8.72a20.12,20.12,0,0,1-14.81-6.08q-6.09-6.09-6.31-16.42-.24-8.73,2.64-13.89a23.15,23.15,0,0,1,7.58-8.27A39.08,39.08,0,0,1,912.76,590q5.75-1.72,11.37-3.1a81.73,81.73,0,0,0,10.33-3.22,13.85,13.85,0,0,0,7-5.51Z"/><path class="cls-3" d="M1021.16,632.75a18.73,18.73,0,0,1-6.43,4.82,21.35,21.35,0,0,1-9.19,1.84,17.55,17.55,0,0,1-9.65-3l-3.9-2.75-2.3-3.68a24.94,24.94,0,0,1-3.33-7.11,23.09,23.09,0,0,1-1-6l-.23-3-12.4,3a43.29,43.29,0,0,0,10.91,17.46q7.23,6.89,20.09,6.89,14.47,0,23.31-7.81t8.84-20.9l-.69-7.35-3.44-4.13a25.56,25.56,0,0,0-8.27-6.2l-5.05-2.07q-11.71-2.29-17-3.67a41.38,41.38,0,0,1-9.65-3.79,14.05,14.05,0,0,1-6.89-14.7,18.18,18.18,0,0,1,3.1-7.46,19.47,19.47,0,0,1,6.43-5.74,18.91,18.91,0,0,1,9.53-2.3,20.06,20.06,0,0,1,9.42,2.53,20.5,20.5,0,0,1,6.31,5.62,25.12,25.12,0,0,1,4.71,14.13l.23,3,12.4-3A43.25,43.25,0,0,0,1026.09,560q-7.23-6.88-20.09-6.89a48.29,48.29,0,0,0-13.21,1.73,26.46,26.46,0,0,0-10.22,5.28,20.09,20.09,0,0,0-6,9.18,32.52,32.52,0,0,0-.92,13.67,18.37,18.37,0,0,0,5.63,9.64,28.41,28.41,0,0,0,9.3,5.28,93.38,93.38,0,0,0,11.14,3.1,80.18,80.18,0,0,1,10.79,3.1,25.26,25.26,0,0,1,8.5,5.17,14.53,14.53,0,0,1,4.25,9.3,19.44,19.44,0,0,1-.57,7.47A17.58,17.58,0,0,1,1021.16,632.75Z"/><path class="cls-3" d="M560.37,700.52V722a27.27,27.27,0,0,0-8-5.85,21.85,21.85,0,0,0-9.44-2.1,21,21,0,0,0-9.82,2.34l-4.68,2.33q-7,8.12-9,13.57a32.93,32.93,0,0,0-2,11.54v2.34a33,33,0,0,0,2,11.55,30.63,30.63,0,0,0,5.54,9.51,26.35,26.35,0,0,0,8.19,6.39L537.6,776h5.3a21.85,21.85,0,0,0,9.44-2.1,27.45,27.45,0,0,0,8-5.85v5.3h7.33l.16-83.91-10.14,10.3Zm0,60.35a28.13,28.13,0,0,1-6.78,10,13.34,13.34,0,0,1-9.13,3.74,12.78,12.78,0,0,1-7.33-2.34l-3.59-2.34-2.49-4a31.81,31.81,0,0,1-4.06-9.52l-1.56-5.46v-6.08A41.83,41.83,0,0,1,527,733.27l1.41-5.3,2.65-4.06a20.84,20.84,0,0,1,6-6.24,13.14,13.14,0,0,1,7.41-2.34,13.49,13.49,0,0,1,9.13,3.67,27.44,27.44,0,0,1,6.78,9.75Z"/><path class="cls-3" d="M626.11,728.43a28.27,28.27,0,0,0-5.62-6.39,26.44,26.44,0,0,0-7.09-4.21,22.76,22.76,0,0,0-18.17.7,26.65,26.65,0,0,0-8.11,6.16,29.3,29.3,0,0,0-5.54,9.13,30.57,30.57,0,0,0-2,11.15v2.34a30,30,0,0,0,2,11.07l2,5.3,3.58,3.9a25.63,25.63,0,0,0,8,6.16,22.06,22.06,0,0,0,9.9,2.26h4.37l3.9-1.56a26.18,26.18,0,0,0,7.09-4.21,28.06,28.06,0,0,0,5.62-6.39,27,27,0,0,0,3.51-8.11l-4.84-1.56a40.89,40.89,0,0,1-2.65,8.19,25.32,25.32,0,0,1-4,6.47l-2.5,2.65q-5.77,3.12-8.89,3.12a13.33,13.33,0,0,1-6.55-1.72,17.88,17.88,0,0,1-5.54-4.83,30.83,30.83,0,0,1-4.13-7.33,41,41,0,0,1-2.5-9.05l41.65-15.13A27,27,0,0,0,626.11,728.43Zm-38.29,21.22a10.85,10.85,0,0,1-.16-1.88V745.9a41,41,0,0,1,1.48-11.15,31.3,31.3,0,0,1,4.14-9.12l2.49-3.75,3.59-2.18a13.46,13.46,0,0,1,7.33-2.18c4.06,0,7.69,1.74,10.92,5.22a30,30,0,0,1,6.86,13.65Z"/><path class="cls-3" d="M755.78,693.8a70.12,70.12,0,0,0-19.32-15.74l-11.53-6.24-14.47-.72h-61.2l4.71,9.75-.23,112.45-5.42,9.82h16.76a22.26,22.26,0,0,0,4.27.23H694l4.76-.23h11.84a58.25,58.25,0,0,0,25.91-7.21,68.9,68.9,0,0,0,19.3-15.85,67.48,67.48,0,0,0,11.92-20.87,63,63,0,0,0,3.82-22.37,62.34,62.34,0,0,0-3.82-22.37A66.77,66.77,0,0,0,755.78,693.8ZM670,681.15l1.5-2.72h38.78a40.45,40.45,0,0,1,17.6,6.25,52.51,52.51,0,0,1,13.92,13.26,63.57,63.57,0,0,1,9,18.12,68.1,68.1,0,0,1,3.21,20.66,79,79,0,0,1-3.44,21.81,66,66,0,0,1-9,18.58L736,785.19l-8.06,5a37.85,37.85,0,0,1-17.59,5.59H670.91l-1.11-2.21Z"/><path class="cls-3" d="M854.78,711.16a41.15,41.15,0,0,0-8.26-9.41,39.11,39.11,0,0,0-10.45-6.21,33.56,33.56,0,0,0-26.76,1,39.33,39.33,0,0,0-11.94,9.07,43.44,43.44,0,0,0-8.15,13.43,45,45,0,0,0-3,16.42V739a44,44,0,0,0,3,16.3l3,7.81,5.28,5.74a37.79,37.79,0,0,0,11.82,9.07,32.64,32.64,0,0,0,14.59,3.33h6.43l5.74-2.29a38.85,38.85,0,0,0,10.45-6.21,41.15,41.15,0,0,0,8.26-9.41A39.23,39.23,0,0,0,860,751.35l-7.12-2.3a60.37,60.37,0,0,1-3.9,12.06,37.81,37.81,0,0,1-6,9.53l-3.68,3.9c-5.66,3.07-10,4.59-13.09,4.59a19.66,19.66,0,0,1-9.64-2.52,26.29,26.29,0,0,1-8.15-7.12,45.22,45.22,0,0,1-6.09-10.79,60.44,60.44,0,0,1-3.67-13.32L860,723.1A39.44,39.44,0,0,0,854.78,711.16Zm-56.37,31.23a16,16,0,0,1-.23-2.75v-2.76a59.72,59.72,0,0,1,2.18-16.42A46,46,0,0,1,806.44,707l3.68-5.51,5.28-3.22a19.79,19.79,0,0,1,10.79-3.21q9,0,16.08,7.69t10.1,20.09Z"/><path class="cls-3" d="M951.8,691.41l-14.69,14,3.67,1.38-.23,48.45q-.45,10.8-7.35,16.77T916,778a24.4,24.4,0,0,1-17.11-6.43,21.44,21.44,0,0,1-7-16.54l.23-63.38-14.93,13.78,3.91,1.38v21.58c-.16,2.91-.23,5.52-.23,7.81v8.73a33.33,33.33,0,0,0,2.87,13.78,33.86,33.86,0,0,0,7.92,11.13,38.66,38.66,0,0,0,11.71,7.47,37,37,0,0,0,14.24,2.75,34.44,34.44,0,0,0,23.19-8.26V783l14.7-8.5-3.9-1.38Z"/><path class="cls-3" d="M988,703.24a19.47,19.47,0,0,1,6.43-5.74,18.91,18.91,0,0,1,9.53-2.3,20.06,20.06,0,0,1,9.42,2.53,20.5,20.5,0,0,1,6.31,5.62,25.12,25.12,0,0,1,4.71,14.13l.23,3,12.4-3A43.25,43.25,0,0,0,1026.09,700q-7.23-6.88-20.09-6.89a48.29,48.29,0,0,0-13.21,1.73,26.46,26.46,0,0,0-10.22,5.28,20.09,20.09,0,0,0-6,9.18,32.52,32.52,0,0,0-.92,13.67,18.37,18.37,0,0,0,5.63,9.64,28.41,28.41,0,0,0,9.3,5.28,93.38,93.38,0,0,0,11.14,3.1,80.18,80.18,0,0,1,10.79,3.1,25.26,25.26,0,0,1,8.5,5.17,14.53,14.53,0,0,1,4.25,9.3,19.44,19.44,0,0,1-.57,7.47,17.58,17.58,0,0,1-3.56,6.77,18.73,18.73,0,0,1-6.43,4.82,21.35,21.35,0,0,1-9.19,1.84,17.55,17.55,0,0,1-9.65-3l-3.9-2.75-2.3-3.68a24.94,24.94,0,0,1-3.33-7.11,23.09,23.09,0,0,1-1-6l-.23-3-12.4,3a43.29,43.29,0,0,0,10.91,17.46q7.23,6.89,20.09,6.89,14.47,0,23.31-7.81t8.84-20.9l-.69-7.35-3.44-4.13a25.56,25.56,0,0,0-8.27-6.2l-5.05-2.07q-11.71-2.29-17-3.67a41.38,41.38,0,0,1-9.65-3.79,14.05,14.05,0,0,1-6.89-14.7A18.18,18.18,0,0,1,988,703.24Z"/></svg>