<svg id="Camada_1" data-name="Camada 1" xmlns="http://www.w3.org/2000/svg" xmlns:xlink="http://www.w3.org/1999/xlink" viewBox="0 0 1080 1080"><defs><style>.cls-1{fill:url(#Gradiente_sem_nome_7);}.cls-2{fill:url(#Gradiente_sem_nome_7-2);}</style><linearGradient id="Gradiente_sem_nome_7" x1="746.04" y1="1148.24" x2="332.79" y2="432.46" gradientUnits="userSpaceOnUse"><stop offset="0" stop-color="#f22f6b"/><stop offset="1" stop-color="#ff8429"/></linearGradient><linearGradient id="Gradiente_sem_nome_7-2" x1="739.57" y1="933.28" x2="291.37" y2="156.98" xlink:href="#Gradiente_sem_nome_7"/></defs><path class="cls-1" d="M930.8,548.23A27.16,27.16,0,0,0,896.56,522l-.22.06-148.66,60,10.2,41.16,130.67-54.57.17,430.57-179.28.07L540,857.23,370.72,999.42l-179.28.07-.18-430.57L322,623.38l10.17-41.14L193.44,525l-.24-.06a35.47,35.47,0,0,0-9.14-1.21A35.15,35.15,0,0,0,149,558.89l.2,482.88,236.9-.1,2.47-2.06L540.05,912.39l151.58,127.1,2.46,2.06,236.91-.1Z"/><path class="cls-2" d="M472.88,274.56v39.7h-6.84a35.29,35.29,0,0,0-34.28,26.79L309.53,761.11l-52,43.68a36.61,36.61,0,0,0,0,56.11l94,78.78,163.87-137.2-.23-570.2-125.5.05v-36.5l125.49-.05,0-115.25,49.3,0,0,115.25,125.5,0v36.5l-125.5,0,.23,570.2L728.39,939.74l2.46-2.08,91.67-77a36.63,36.63,0,0,0,0-56.11l-52.06-43.64L646.83,336.82a29.84,29.84,0,0,0-29-22.62H606.72l0-39.7,89.78,0a35.76,35.76,0,0,0,35.7-35.74l0-85.29-125.5.05,0-115.26-100.8,0a33.07,33.07,0,0,0-33,33l0,82.23-92.3,0a33.25,33.25,0,0,0-33.19,33.22l0,87.81Zm0,90.52.17,417.71L351.71,884.71l-61.88-51.88,57.3-48.12L408,575Zm260,419.48,57.33,48.07-61.83,51.93L606.9,782.74,606.74,365l65.1,209.83Z"/></svg>